G04 PROTEUS GERBER X2 FILE*
%TF.GenerationSoftware,Labcenter,Proteus,8.6-SP2-Build23525*%
%TF.CreationDate,2018-06-21T20:22:57+00:00*%
%TF.FileFunction,Soldermask,Top*%
%TF.FilePolarity,Negative*%
%TF.Part,Single*%
%FSLAX45Y45*%
%MOMM*%
G01*
%TA.AperFunction,Material*%
%ADD25C,1.016000*%
%AMPPAD018*
4,1,36,
-0.635000,0.762000,
0.635000,0.762000,
0.660970,0.759470,
0.684980,0.752200,
0.706580,0.740650,
0.725290,0.725290,
0.740650,0.706570,
0.752200,0.684980,
0.759470,0.660970,
0.762000,0.635000,
0.762000,-0.635000,
0.759470,-0.660970,
0.752200,-0.684980,
0.740650,-0.706570,
0.725290,-0.725290,
0.706580,-0.740650,
0.684980,-0.752200,
0.660970,-0.759470,
0.635000,-0.762000,
-0.635000,-0.762000,
-0.660970,-0.759470,
-0.684980,-0.752200,
-0.706580,-0.740650,
-0.725290,-0.725290,
-0.740650,-0.706570,
-0.752200,-0.684980,
-0.759470,-0.660970,
-0.762000,-0.635000,
-0.762000,0.635000,
-0.759470,0.660970,
-0.752200,0.684980,
-0.740650,0.706570,
-0.725290,0.725290,
-0.706580,0.740650,
-0.684980,0.752200,
-0.660970,0.759470,
-0.635000,0.762000,
0*%
%TA.AperFunction,Material*%
%ADD26PPAD018*%
%ADD27C,1.524000*%
%TA.AperFunction,Material*%
%ADD28C,2.032000*%
%ADD29C,2.540000*%
%TA.AperFunction,Material*%
%ADD72C,1.651000*%
%TA.AperFunction,Material*%
%ADD73C,2.286000*%
%AMPPAD024*
4,1,36,
-1.016000,1.143000,
1.016000,1.143000,
1.041970,1.140470,
1.065980,1.133200,
1.087580,1.121650,
1.106290,1.106290,
1.121650,1.087570,
1.133200,1.065980,
1.140470,1.041970,
1.143000,1.016000,
1.143000,-1.016000,
1.140470,-1.041970,
1.133200,-1.065980,
1.121650,-1.087570,
1.106290,-1.106290,
1.087580,-1.121650,
1.065980,-1.133200,
1.041970,-1.140470,
1.016000,-1.143000,
-1.016000,-1.143000,
-1.041970,-1.140470,
-1.065980,-1.133200,
-1.087580,-1.121650,
-1.106290,-1.106290,
-1.121650,-1.087570,
-1.133200,-1.065980,
-1.140470,-1.041970,
-1.143000,-1.016000,
-1.143000,1.016000,
-1.140470,1.041970,
-1.133200,1.065980,
-1.121650,1.087570,
-1.106290,1.106290,
-1.087580,1.121650,
-1.065980,1.133200,
-1.041970,1.140470,
-1.016000,1.143000,
0*%
%TA.AperFunction,Material*%
%ADD30PPAD024*%
%AMPPAD025*
4,1,36,
0.762000,0.635000,
0.762000,-0.635000,
0.759470,-0.660970,
0.752200,-0.684980,
0.740650,-0.706580,
0.725290,-0.725290,
0.706570,-0.740650,
0.684980,-0.752200,
0.660970,-0.759470,
0.635000,-0.762000,
-0.635000,-0.762000,
-0.660970,-0.759470,
-0.684980,-0.752200,
-0.706570,-0.740650,
-0.725290,-0.725290,
-0.740650,-0.706580,
-0.752200,-0.684980,
-0.759470,-0.660970,
-0.762000,-0.635000,
-0.762000,0.635000,
-0.759470,0.660970,
-0.752200,0.684980,
-0.740650,0.706580,
-0.725290,0.725290,
-0.706570,0.740650,
-0.684980,0.752200,
-0.660970,0.759470,
-0.635000,0.762000,
0.635000,0.762000,
0.660970,0.759470,
0.684980,0.752200,
0.706570,0.740650,
0.725290,0.725290,
0.740650,0.706580,
0.752200,0.684980,
0.759470,0.660970,
0.762000,0.635000,
0*%
%TA.AperFunction,Material*%
%ADD31PPAD025*%
%AMPPAD026*
4,1,20,
-0.005000,0.625000,
0.005000,0.625000,
0.039760,0.621620,
0.071900,0.611880,
0.100810,0.596420,
0.125860,0.575860,
0.146420,0.550810,
0.161880,0.521900,
0.171620,0.489760,
0.175000,0.455000,
0.175000,-0.175000,
-0.175000,-0.175000,
-0.175000,0.455000,
-0.171620,0.489760,
-0.161880,0.521900,
-0.146420,0.550810,
-0.125860,0.575860,
-0.100810,0.596420,
-0.071900,0.611880,
-0.039760,0.621620,
-0.005000,0.625000,
0*%
%TA.AperFunction,Material*%
%ADD32PPAD026*%
%TA.AperFunction,Profile*%
%ADD20C,0.203200*%
%TD.AperFunction*%
D25*
X+5397500Y+6032500D03*
X-1333500Y+7429500D03*
X+635000Y+4191000D03*
X+1460500Y+1333500D03*
X+1714500Y+4445000D03*
X+825500Y+5778500D03*
X+2032000Y+1270000D03*
X+2032000Y+1651000D03*
X+381000Y+8255000D03*
X+381000Y+6985000D03*
X+4889500Y+8128000D03*
X+4445000Y-635000D03*
X+2349500Y+8128000D03*
D26*
X-2250000Y+5250000D03*
D27*
X-1996000Y+5250000D03*
X-1742000Y+5250000D03*
X-1488000Y+5250000D03*
X-1234000Y+5250000D03*
X-980000Y+5250000D03*
X-726000Y+5250000D03*
X-472000Y+5250000D03*
X-218000Y+5250000D03*
X+36000Y+5250000D03*
X+290000Y+5250000D03*
X+544000Y+5250000D03*
X+798000Y+5250000D03*
X+1052000Y+5250000D03*
X+1306000Y+5250000D03*
X+1560000Y+5250000D03*
X+1814000Y+5250000D03*
X+2068000Y+5250000D03*
X+2322000Y+5250000D03*
X+2576000Y+5250000D03*
X+2576000Y+6774000D03*
X+2322000Y+6774000D03*
X+2068000Y+6774000D03*
X+1814000Y+6774000D03*
X+1560000Y+6774000D03*
X+1306000Y+6774000D03*
X+1052000Y+6774000D03*
X+798000Y+6774000D03*
X+544000Y+6774000D03*
X+290000Y+6774000D03*
X+36000Y+6774000D03*
X-218000Y+6774000D03*
X-472000Y+6774000D03*
X-726000Y+6774000D03*
X-980000Y+6774000D03*
X-1234000Y+6774000D03*
X-1488000Y+6774000D03*
X-1742000Y+6774000D03*
X-1996000Y+6774000D03*
X-2250000Y+6774000D03*
D26*
X-2250000Y+1500000D03*
D27*
X-1996000Y+1500000D03*
X-1742000Y+1500000D03*
X-1488000Y+1500000D03*
X-1234000Y+1500000D03*
X-980000Y+1500000D03*
X-726000Y+1500000D03*
X-472000Y+1500000D03*
X-218000Y+1500000D03*
X+36000Y+1500000D03*
X+290000Y+1500000D03*
X+544000Y+1500000D03*
X+798000Y+1500000D03*
X+1052000Y+1500000D03*
X+1306000Y+1500000D03*
X+1560000Y+1500000D03*
X+1814000Y+1500000D03*
X+2068000Y+1500000D03*
X+2322000Y+1500000D03*
X+2576000Y+1500000D03*
X+2576000Y+3024000D03*
X+2322000Y+3024000D03*
X+2068000Y+3024000D03*
X+1814000Y+3024000D03*
X+1560000Y+3024000D03*
X+1306000Y+3024000D03*
X+1052000Y+3024000D03*
X+798000Y+3024000D03*
X+544000Y+3024000D03*
X+290000Y+3024000D03*
X+36000Y+3024000D03*
X-218000Y+3024000D03*
X-472000Y+3024000D03*
X-726000Y+3024000D03*
X-980000Y+3024000D03*
X-1234000Y+3024000D03*
X-1488000Y+3024000D03*
X-1742000Y+3024000D03*
X-1996000Y+3024000D03*
X-2250000Y+3024000D03*
D28*
X+750000Y+4000000D03*
X+1004000Y+4000000D03*
X+1750000Y+4000000D03*
X+2004000Y+4000000D03*
X+500000Y+250000D03*
X+754000Y+250000D03*
X+1500000Y+250000D03*
X+1754000Y+250000D03*
D29*
X+4000000Y+8500000D03*
X+4000000Y+7230000D03*
X-3250000Y+8500000D03*
X-3250000Y+7230000D03*
X+4500000Y+230000D03*
X+4500000Y-1040000D03*
X-3250000Y+250000D03*
X-3250000Y-1020000D03*
D72*
X-4250000Y-700000D03*
X-800000Y+4000000D03*
X-1000000Y+4000000D03*
X-1200000Y+4000000D03*
X-1400000Y+4000000D03*
D28*
X-2250000Y+3750000D03*
X-2250000Y+4766000D03*
X-3250000Y+5250000D03*
X-3250000Y+6266000D03*
X+4000000Y+5750000D03*
X+4000000Y+6766000D03*
X+5000000Y+2516000D03*
X+5000000Y+1500000D03*
X-3250000Y+3000000D03*
X-3250000Y+1984000D03*
X-2250000Y+750000D03*
X-2250000Y-266000D03*
D73*
X+1500000Y+4750000D03*
X+992000Y+4750000D03*
X+1250000Y+1000000D03*
X+742000Y+1000000D03*
D30*
X-2016000Y+246000D03*
X-1762000Y+246000D03*
X-1508000Y+246000D03*
X-1254000Y+246000D03*
X-1000000Y+246000D03*
X-746000Y+246000D03*
X-492000Y+246000D03*
X-492000Y+500000D03*
X-746000Y+500000D03*
X-1000000Y+500000D03*
X-1254000Y+500000D03*
X-1508000Y+500000D03*
X-1762000Y+500000D03*
X-2016000Y+500000D03*
D31*
X+4000000Y+2500000D03*
D27*
X+4000000Y+2246000D03*
X+4000000Y+1992000D03*
X+4000000Y+1738000D03*
X+4762000Y+1738000D03*
X+4762000Y+1992000D03*
X+4762000Y+2246000D03*
X+4762000Y+2500000D03*
D73*
X+3500000Y+2000000D03*
X+3500000Y+2508000D03*
D32*
X-5000000Y+6000000D03*
X-10250000Y+6500000D03*
X-11750000Y+7500000D03*
X-4750000Y+8000000D03*
D20*
X-4520000Y-1400000D02*
X+5480000Y-1400000D01*
X+5480000Y+8690000D01*
X-4520000Y+8690000D01*
X-4520000Y-1400000D01*
M02*
