G04 PROTEUS GERBER X2 FILE*
%TF.GenerationSoftware,Labcenter,Proteus,8.6-SP2-Build23525*%
%TF.CreationDate,2018-06-21T20:22:57+00:00*%
%TF.FileFunction,Plated,1,2,PTH*%
%TF.FilePolarity,Positive*%
%TF.Part,Single*%
%FSLAX45Y45*%
%MOMM*%
G01*
%TA.AperFunction,ViaDrill*%
%ADD44C,0.381000*%
%TA.AperFunction,MechanicalDrill*%
%ADD45C,3.000000*%
%TA.AperFunction,ComponentDrill*%
%ADD46C,0.762000*%
%TA.AperFunction,ComponentDrill*%
%ADD47C,1.016000*%
%TA.AperFunction,ComponentDrill*%
%ADD48C,0.381000*%
%ADD49C,0.812800*%
%TD.AperFunction*%
D44*
X+5397500Y+6032500D03*
X-1333500Y+7429500D03*
X+635000Y+4191000D03*
X+1460500Y+1333500D03*
X+1714500Y+4445000D03*
X+825500Y+5778500D03*
X+2032000Y+1270000D03*
X+2032000Y+1651000D03*
X+381000Y+8255000D03*
X+381000Y+6985000D03*
X+4889500Y+8128000D03*
X+4445000Y-635000D03*
X+2349500Y+8128000D03*
D45*
X+7724100Y+11114700D03*
X+5250000Y-1000000D03*
X-7642900Y+11114700D03*
X+7724100Y-11115300D03*
X-7642900Y-11115300D03*
D46*
X-2250000Y+5250000D03*
X-1996000Y+5250000D03*
X-1742000Y+5250000D03*
X-1488000Y+5250000D03*
X-1234000Y+5250000D03*
X-980000Y+5250000D03*
X-726000Y+5250000D03*
X-472000Y+5250000D03*
X-218000Y+5250000D03*
X+36000Y+5250000D03*
X+290000Y+5250000D03*
X+544000Y+5250000D03*
X+798000Y+5250000D03*
X+1052000Y+5250000D03*
X+1306000Y+5250000D03*
X+1560000Y+5250000D03*
X+1814000Y+5250000D03*
X+2068000Y+5250000D03*
X+2322000Y+5250000D03*
X+2576000Y+5250000D03*
X+2576000Y+6774000D03*
X+2322000Y+6774000D03*
X+2068000Y+6774000D03*
X+1814000Y+6774000D03*
X+1560000Y+6774000D03*
X+1306000Y+6774000D03*
X+1052000Y+6774000D03*
X+798000Y+6774000D03*
X+544000Y+6774000D03*
X+290000Y+6774000D03*
X+36000Y+6774000D03*
X-218000Y+6774000D03*
X-472000Y+6774000D03*
X-726000Y+6774000D03*
X-980000Y+6774000D03*
X-1234000Y+6774000D03*
X-1488000Y+6774000D03*
X-1742000Y+6774000D03*
X-1996000Y+6774000D03*
X-2250000Y+6774000D03*
X-2250000Y+1500000D03*
X-1996000Y+1500000D03*
X-1742000Y+1500000D03*
X-1488000Y+1500000D03*
X-1234000Y+1500000D03*
X-980000Y+1500000D03*
X-726000Y+1500000D03*
X-472000Y+1500000D03*
X-218000Y+1500000D03*
X+36000Y+1500000D03*
X+290000Y+1500000D03*
X+544000Y+1500000D03*
X+798000Y+1500000D03*
X+1052000Y+1500000D03*
X+1306000Y+1500000D03*
X+1560000Y+1500000D03*
X+1814000Y+1500000D03*
X+2068000Y+1500000D03*
X+2322000Y+1500000D03*
X+2576000Y+1500000D03*
X+2576000Y+3024000D03*
X+2322000Y+3024000D03*
X+2068000Y+3024000D03*
X+1814000Y+3024000D03*
X+1560000Y+3024000D03*
X+1306000Y+3024000D03*
X+1052000Y+3024000D03*
X+798000Y+3024000D03*
X+544000Y+3024000D03*
X+290000Y+3024000D03*
X+36000Y+3024000D03*
X-218000Y+3024000D03*
X-472000Y+3024000D03*
X-726000Y+3024000D03*
X-980000Y+3024000D03*
X-1234000Y+3024000D03*
X-1488000Y+3024000D03*
X-1742000Y+3024000D03*
X-1996000Y+3024000D03*
X-2250000Y+3024000D03*
X+750000Y+4000000D03*
X+1004000Y+4000000D03*
X+1750000Y+4000000D03*
X+2004000Y+4000000D03*
X+500000Y+250000D03*
X+754000Y+250000D03*
X+1500000Y+250000D03*
X+1754000Y+250000D03*
D47*
X+4000000Y+8500000D03*
X+4000000Y+7230000D03*
X-3250000Y+8500000D03*
X-3250000Y+7230000D03*
X+4500000Y+230000D03*
X+4500000Y-1040000D03*
X-3250000Y+250000D03*
X-3250000Y-1020000D03*
D48*
X+200000Y+8500000D03*
X+0Y+8500000D03*
X-200000Y+8500000D03*
X-400000Y+8500000D03*
X-4250000Y+7800000D03*
X-4250000Y+8000000D03*
X-4250000Y+8200000D03*
X-4250000Y+8400000D03*
X+5250000Y+7800000D03*
X+5250000Y+8000000D03*
X+5250000Y+8200000D03*
X+5250000Y+8400000D03*
X+5250000Y-650000D03*
X+5250000Y-450000D03*
X+5250000Y-250000D03*
X+5250000Y-50000D03*
D49*
X-4250000Y-700000D03*
D48*
X-4250000Y-500000D03*
X-4250000Y-300000D03*
X-4250000Y-100000D03*
D49*
X-800000Y+4000000D03*
X-1000000Y+4000000D03*
X-1200000Y+4000000D03*
X-1400000Y+4000000D03*
D48*
X+900000Y-1000000D03*
X+700000Y-1000000D03*
X+500000Y-1000000D03*
X+300000Y-1000000D03*
X+100000Y-1000000D03*
X-100000Y-1000000D03*
D46*
X-2250000Y+3750000D03*
X-2250000Y+4766000D03*
X-3250000Y+5250000D03*
X-3250000Y+6266000D03*
X+4000000Y+5750000D03*
X+4000000Y+6766000D03*
X+5000000Y+2516000D03*
X+5000000Y+1500000D03*
X-3250000Y+3000000D03*
X-3250000Y+1984000D03*
X-2250000Y+750000D03*
X-2250000Y-266000D03*
X+1500000Y+4750000D03*
X+992000Y+4750000D03*
X+1250000Y+1000000D03*
X+742000Y+1000000D03*
D48*
X+2000000Y-1000000D03*
X+1800000Y-1000000D03*
D47*
X-2016000Y+246000D03*
X-1762000Y+246000D03*
X-1508000Y+246000D03*
X-1254000Y+246000D03*
X-1000000Y+246000D03*
X-746000Y+246000D03*
X-492000Y+246000D03*
X-492000Y+500000D03*
X-746000Y+500000D03*
X-1000000Y+500000D03*
X-1254000Y+500000D03*
X-1508000Y+500000D03*
X-1762000Y+500000D03*
X-2016000Y+500000D03*
D46*
X+4000000Y+2500000D03*
X+4000000Y+2246000D03*
X+4000000Y+1992000D03*
X+4000000Y+1738000D03*
X+4762000Y+1738000D03*
X+4762000Y+1992000D03*
X+4762000Y+2246000D03*
X+4762000Y+2500000D03*
X+3500000Y+2000000D03*
X+3500000Y+2508000D03*
D48*
X+1700000Y+7750000D03*
X+1500000Y+7750000D03*
X+1300000Y+7750000D03*
X+1100000Y+7750000D03*
M02*
