G04 PROTEUS GERBER X2 FILE*
%TF.GenerationSoftware,Labcenter,Proteus,8.6-SP2-Build23525*%
%TF.CreationDate,2018-06-21T20:22:57+00:00*%
%TF.FileFunction,Copper,L1,Top*%
%TF.FilePolarity,Positive*%
%TF.Part,Single*%
%FSLAX45Y45*%
%MOMM*%
G01*
%TA.AperFunction,Conductor*%
%ADD10C,0.762000*%
%ADD11C,1.270000*%
%TA.AperFunction,ViaPad*%
%ADD12C,0.762000*%
%TA.AperFunction,ComponentPad*%
%ADD13R,1.270000X1.270000*%
%ADD14C,1.270000*%
%TA.AperFunction,ComponentPad*%
%ADD15C,1.778000*%
%ADD16C,2.286000*%
%TA.AperFunction,ComponentPad*%
%ADD17C,0.762000*%
%TA.AperFunction,WasherPad*%
%ADD18C,1.397000*%
%TA.AperFunction,ComponentPad*%
%ADD19C,2.032000*%
%TA.AperFunction,ComponentPad*%
%ADD70R,2.032000X2.032000*%
%AMPPAD011*
4,1,20,
-0.005000,0.625000,
0.005000,0.625000,
0.039760,0.621620,
0.071900,0.611880,
0.100810,0.596420,
0.125860,0.575860,
0.146420,0.550810,
0.161880,0.521900,
0.171620,0.489760,
0.175000,0.455000,
0.175000,-0.175000,
-0.175000,-0.175000,
-0.175000,0.455000,
-0.171620,0.489760,
-0.161880,0.521900,
-0.146420,0.550810,
-0.125860,0.575860,
-0.100810,0.596420,
-0.071900,0.611880,
-0.039760,0.621620,
-0.005000,0.625000,
0*%
%TA.AperFunction,ConnectorPad*%
%ADD71PPAD011*%
%TA.AperFunction,Profile*%
%ADD20C,0.203200*%
%TD.AperFunction*%
D10*
X+1560000Y+5250000D02*
X+1263000Y+4953000D01*
X-3619500Y+4953000D01*
X-3746779Y+4825721D01*
X-3746779Y+203221D01*
X-4250000Y-300000D01*
X+2322000Y+5250000D02*
X+2322000Y+4445000D01*
X+2195000Y+4318000D01*
X-2603500Y+4318000D01*
X-2735970Y+4185530D01*
X-2735970Y+764030D01*
X-3250000Y+250000D01*
X+5250000Y-250000D02*
X+5397500Y-102500D01*
X+5397500Y+5778500D01*
X+5270500Y+5905500D01*
X-2095500Y+5905500D01*
X-2250000Y+6060000D01*
X-2250000Y+6774000D01*
X+5397500Y+6032500D02*
X-1841500Y+6032500D01*
X-1996000Y+6187000D01*
X-1996000Y+6774000D01*
X-1333500Y+7429500D02*
X+5270500Y+7429500D01*
X+5397500Y+7556500D01*
X+5397500Y+8052500D01*
X+5250000Y+8200000D01*
X-1488000Y+6774000D02*
X-1488000Y+7810500D01*
X-1298500Y+8000000D01*
X+5250000Y+8000000D01*
X-1234000Y+6774000D02*
X-1531000Y+6477000D01*
X-1714500Y+6477000D01*
X-1869000Y+6631500D01*
X-1869000Y+8064500D01*
X-2004500Y+8200000D01*
X-4250000Y+8200000D01*
X+635000Y+4191000D02*
X+571500Y+4127500D01*
X+571500Y+3683000D01*
X+698500Y+3556000D01*
X+1524000Y+3556000D01*
X+1687000Y+3393000D01*
X+1687000Y+2413000D01*
X+1560000Y+2286000D01*
X+63500Y+2286000D01*
X-91000Y+2131500D01*
X-91000Y+889000D01*
X+63500Y+734500D01*
X+63500Y-763500D01*
X+300000Y-1000000D01*
X+1460500Y+1333500D02*
X+317500Y+1333500D01*
X+190500Y+1206500D01*
X+190500Y-127000D01*
X+700000Y-636500D01*
X+700000Y-1000000D01*
X+825500Y+5778500D02*
X+1524000Y+5778500D01*
X+1687000Y+5615500D01*
X+1687000Y+5143500D01*
X+1714500Y+5116000D01*
X+1714500Y+4445000D01*
X+1306000Y+5250000D02*
X+1136000Y+5080000D01*
X-4254500Y+5080000D01*
X-4398495Y+4936005D01*
X-4398495Y-351505D01*
X-4250000Y-500000D01*
X+2032000Y+1270000D02*
X+5080000Y+1270000D01*
X+5207000Y+1397000D01*
X+5207000Y+1547000D01*
X+4762000Y+1992000D01*
X+1306000Y+3024000D02*
X+1076000Y+2794000D01*
X-952500Y+2794000D01*
X-1107000Y+2948500D01*
X-1107000Y+3556000D01*
X-1200000Y+3649000D01*
X-1200000Y+4000000D01*
X+1560000Y+3024000D02*
X+1409000Y+3175000D01*
X+444500Y+3175000D01*
X-571500Y+4191000D01*
X-809000Y+4191000D01*
X-1000000Y+4000000D01*
X+2032000Y+1651000D02*
X+3302000Y+1651000D01*
X+3365500Y+1587500D01*
X+4611500Y+1587500D01*
X+4762000Y+1738000D01*
X+4000000Y+2500000D02*
X+3992000Y+2508000D01*
X+3500000Y+2508000D01*
X+4000000Y+2246000D02*
X+3746000Y+2246000D01*
X+3500000Y+2000000D01*
D11*
X+4318000Y+2794000D02*
X+4318000Y+3175000D01*
X+4127500Y+3175000D01*
X+4127500Y+2794000D01*
X+3746500Y+4191000D02*
X+3746500Y+3175000D01*
X+4127500Y+2794000D01*
X+4191000Y+2730500D01*
X+4191000Y+1929000D01*
X+4000000Y+1738000D01*
X+5000000Y+2516000D02*
X+4722000Y+2794000D01*
X+4318000Y+2794000D01*
X+750000Y+4000000D02*
X+1067000Y+3683000D01*
X+1750000Y+3683000D01*
X+1750000Y+4000000D01*
X+1941000Y+4191000D01*
X+3746500Y+4191000D01*
X+4000000Y+5750000D02*
X+3746500Y+5496500D01*
X+3746500Y+4191000D01*
X-400000Y+8500000D02*
X-400000Y+8255000D01*
X+381000Y+8255000D01*
X+36000Y+6774000D02*
X+247000Y+6985000D01*
X+381000Y+6985000D01*
X+500000Y+250000D02*
X+694500Y+444500D01*
X+1305500Y+444500D01*
X+1500000Y+250000D01*
X-100000Y-1000000D02*
X-834000Y-266000D01*
X-2250000Y-266000D01*
X+2000000Y-1000000D02*
X+2365000Y-635000D01*
X+4445000Y-635000D01*
X-2250000Y-266000D02*
X-2684000Y-700000D01*
X-4250000Y-700000D01*
X-218000Y+3024000D02*
X-218000Y+3418000D01*
X-800000Y+4000000D01*
X+200000Y+8500000D02*
X+2730500Y+8500000D01*
X+3102500Y+8128000D01*
X+4889500Y+8128000D01*
X+4445000Y-635000D02*
X+4635500Y-635000D01*
X+4650500Y-650000D01*
X+5250000Y-650000D01*
X-100000Y-1000000D02*
X-100000Y-1270000D01*
X+2000000Y-1270000D01*
X+2000000Y-1000000D01*
D10*
X+2349500Y+8128000D02*
X-825500Y+8128000D01*
X-1079500Y+8382000D01*
X-3132000Y+8382000D01*
X-3250000Y+8500000D01*
D12*
X+5397500Y+6032500D03*
X-1333500Y+7429500D03*
X+635000Y+4191000D03*
X+1460500Y+1333500D03*
X+1714500Y+4445000D03*
X+825500Y+5778500D03*
X+2032000Y+1270000D03*
X+2032000Y+1651000D03*
X+381000Y+8255000D03*
X+381000Y+6985000D03*
X+4889500Y+8128000D03*
X+4445000Y-635000D03*
X+2349500Y+8128000D03*
D13*
X-2250000Y+5250000D03*
D14*
X-1996000Y+5250000D03*
X-1742000Y+5250000D03*
X-1488000Y+5250000D03*
X-1234000Y+5250000D03*
X-980000Y+5250000D03*
X-726000Y+5250000D03*
X-472000Y+5250000D03*
X-218000Y+5250000D03*
X+36000Y+5250000D03*
X+290000Y+5250000D03*
X+544000Y+5250000D03*
X+798000Y+5250000D03*
X+1052000Y+5250000D03*
X+1306000Y+5250000D03*
X+1560000Y+5250000D03*
X+1814000Y+5250000D03*
X+2068000Y+5250000D03*
X+2322000Y+5250000D03*
X+2576000Y+5250000D03*
X+2576000Y+6774000D03*
X+2322000Y+6774000D03*
X+2068000Y+6774000D03*
X+1814000Y+6774000D03*
X+1560000Y+6774000D03*
X+1306000Y+6774000D03*
X+1052000Y+6774000D03*
X+798000Y+6774000D03*
X+544000Y+6774000D03*
X+290000Y+6774000D03*
X+36000Y+6774000D03*
X-218000Y+6774000D03*
X-472000Y+6774000D03*
X-726000Y+6774000D03*
X-980000Y+6774000D03*
X-1234000Y+6774000D03*
X-1488000Y+6774000D03*
X-1742000Y+6774000D03*
X-1996000Y+6774000D03*
X-2250000Y+6774000D03*
D13*
X-2250000Y+1500000D03*
D14*
X-1996000Y+1500000D03*
X-1742000Y+1500000D03*
X-1488000Y+1500000D03*
X-1234000Y+1500000D03*
X-980000Y+1500000D03*
X-726000Y+1500000D03*
X-472000Y+1500000D03*
X-218000Y+1500000D03*
X+36000Y+1500000D03*
X+290000Y+1500000D03*
X+544000Y+1500000D03*
X+798000Y+1500000D03*
X+1052000Y+1500000D03*
X+1306000Y+1500000D03*
X+1560000Y+1500000D03*
X+1814000Y+1500000D03*
X+2068000Y+1500000D03*
X+2322000Y+1500000D03*
X+2576000Y+1500000D03*
X+2576000Y+3024000D03*
X+2322000Y+3024000D03*
X+2068000Y+3024000D03*
X+1814000Y+3024000D03*
X+1560000Y+3024000D03*
X+1306000Y+3024000D03*
X+1052000Y+3024000D03*
X+798000Y+3024000D03*
X+544000Y+3024000D03*
X+290000Y+3024000D03*
X+36000Y+3024000D03*
X-218000Y+3024000D03*
X-472000Y+3024000D03*
X-726000Y+3024000D03*
X-980000Y+3024000D03*
X-1234000Y+3024000D03*
X-1488000Y+3024000D03*
X-1742000Y+3024000D03*
X-1996000Y+3024000D03*
X-2250000Y+3024000D03*
D15*
X+750000Y+4000000D03*
X+1004000Y+4000000D03*
X+1750000Y+4000000D03*
X+2004000Y+4000000D03*
X+500000Y+250000D03*
X+754000Y+250000D03*
X+1500000Y+250000D03*
X+1754000Y+250000D03*
D16*
X+4000000Y+8500000D03*
X+4000000Y+7230000D03*
X-3250000Y+8500000D03*
X-3250000Y+7230000D03*
X+4500000Y+230000D03*
X+4500000Y-1040000D03*
X-3250000Y+250000D03*
X-3250000Y-1020000D03*
D17*
X+200000Y+8500000D03*
X+0Y+8500000D03*
X-200000Y+8500000D03*
X-400000Y+8500000D03*
X-4250000Y+7800000D03*
X-4250000Y+8000000D03*
X-4250000Y+8200000D03*
X-4250000Y+8400000D03*
X+5250000Y+7800000D03*
X+5250000Y+8000000D03*
X+5250000Y+8200000D03*
X+5250000Y+8400000D03*
X+5250000Y-650000D03*
X+5250000Y-450000D03*
X+5250000Y-250000D03*
X+5250000Y-50000D03*
D18*
X-4250000Y-700000D03*
D17*
X-4250000Y-500000D03*
X-4250000Y-300000D03*
X-4250000Y-100000D03*
D18*
X-800000Y+4000000D03*
X-1000000Y+4000000D03*
X-1200000Y+4000000D03*
X-1400000Y+4000000D03*
D17*
X+900000Y-1000000D03*
X+700000Y-1000000D03*
X+500000Y-1000000D03*
X+300000Y-1000000D03*
X+100000Y-1000000D03*
X-100000Y-1000000D03*
D15*
X-2250000Y+3750000D03*
X-2250000Y+4766000D03*
X-3250000Y+5250000D03*
X-3250000Y+6266000D03*
X+4000000Y+5750000D03*
X+4000000Y+6766000D03*
X+5000000Y+2516000D03*
X+5000000Y+1500000D03*
X-3250000Y+3000000D03*
X-3250000Y+1984000D03*
X-2250000Y+750000D03*
X-2250000Y-266000D03*
D19*
X+1500000Y+4750000D03*
X+992000Y+4750000D03*
X+1250000Y+1000000D03*
X+742000Y+1000000D03*
D17*
X+2000000Y-1000000D03*
X+1800000Y-1000000D03*
D70*
X-2016000Y+246000D03*
X-1762000Y+246000D03*
X-1508000Y+246000D03*
X-1254000Y+246000D03*
X-1000000Y+246000D03*
X-746000Y+246000D03*
X-492000Y+246000D03*
X-492000Y+500000D03*
X-746000Y+500000D03*
X-1000000Y+500000D03*
X-1254000Y+500000D03*
X-1508000Y+500000D03*
X-1762000Y+500000D03*
X-2016000Y+500000D03*
D13*
X+4000000Y+2500000D03*
D14*
X+4000000Y+2246000D03*
X+4000000Y+1992000D03*
X+4000000Y+1738000D03*
X+4762000Y+1738000D03*
X+4762000Y+1992000D03*
X+4762000Y+2246000D03*
X+4762000Y+2500000D03*
D19*
X+3500000Y+2000000D03*
X+3500000Y+2508000D03*
D71*
X-5000000Y+6000000D03*
X-10250000Y+6500000D03*
X-11750000Y+7500000D03*
X-4750000Y+8000000D03*
D17*
X+1700000Y+7750000D03*
X+1500000Y+7750000D03*
X+1300000Y+7750000D03*
X+1100000Y+7750000D03*
D20*
X-4520000Y-1400000D02*
X+5480000Y-1400000D01*
X+5480000Y+8690000D01*
X-4520000Y+8690000D01*
X-4520000Y-1400000D01*
M02*
